<svg xmlns="http://www.w3.org/2000/svg" width="116" height="121" viewBox="0 0 116 121">
  <g fill="none" fill-rule="evenodd">
    <rect width="116" height="121" fill="#FFFFFF" rx="45"/>
    <path fill="#C0E7D6" d="M0,44.9914386 C0,20.1433532 20.1394041,0 44.9938982,0 L71.0061018,0 C95.8555456,0 116,20.1505266 116,44.9914386 L116,76.0085614 C116,100.856647 95.8605959,121 71.0061018,121 L44.9938982,121 C20.1444544,121 0,100.849473 0,76.0085614 L0,44.9914386 Z M0,44.9973036 C0,20.1459791 20.1394041,0 44.9938982,0 L71.0061018,0 C95.8555456,0 116,20.1466014 116,44.9973036 L116,70.0026964 C116,94.8540209 95.8605959,115 71.0061018,115 L44.9938982,115 C20.1444544,115 0,94.8533986 0,70.0026964 L0,44.9973036 Z"/>
    <g transform="translate(33 37)">
      <path fill="#010101" d="M44 6C47.3137085 6 50 9.3137085 50 6 50 2.6862915 47.3137085 0 44 0 40.6862915 0 38 2.6862915 38 6 38 9.3137085 40.6862915 6 44 6zM6 6C9.3137085 6 12 9.3137085 12 6 12 2.6862915 9.3137085 0 6 0 2.6862915 0 0 2.6862915 0 6 0 9.3137085 2.6862915 6 6 6z"/>
      <g transform="translate(17 14)">
        <path fill="#382F2F" stroke="#160B0B" d="M8.5,8.49349721 C12.9443414,8.49349721 16.547192,5.39653022 16.547192,1.57622783 C16.547192,1.14116509 16.3871972,0.493497207 15.5153633,0.493497207 C14.3780169,0.493497207 6.24824365,0.493497207 1.44917956,0.493497207 C0.941060085,0.493497207 0.452808048,1.25315831 0.452808048,1.57622783 C0.452808048,5.39653022 4.05565861,8.49349721 8.5,8.49349721 Z"/>
        <ellipse cx="8.5" cy="5.59" fill="#EF554A" rx="3.812" ry="2.184"/>
      </g>
    </g>
  </g>
</svg>
